<svg viewBox="0 0 1024 1024" version="1.1" xmlns="http://www.w3.org/2000/svg" p-id="1468" xmlns:xlink="http://www.w3.org/1999/xlink" width="64" height="64"><defs><style type="text/css"></style></defs><path d="M78 0h868c43.078 0 78 34.922 78 78v868c0 43.078-34.922 78-78 78H78c-43.078 0-78-34.922-78-78V78C0 34.922 34.922 0 78 0z" fill="#0064A3" p-id="1469"></path><path d="M227.328 389.824h114.624v432.399H227.328V389.824z m572.8 24.8c28.32 23.392 42.464 62.224 42.464 116.416v291.184h-115.84V559.216c0-22.752-3.023-40.208-9.056-52.352-11.008-22.24-32-33.328-63.008-33.328-38.08 0-64.192 16.271-78.353 48.8-7.359 17.2-11.008 39.136-11.008 65.824v234.063H452.272V390.608h109.456v63.088c14.496-22.208 28.191-38.208 41.088-48 23.184-17.456 52.544-26.192 88.096-26.192 44.496 0.016 80.897 11.696 109.216 35.12zM355.872 257.216c-0.004 39.345-31.903 71.237-71.248 71.232-39.345-0.005-71.236-31.903-71.232-71.248s31.903-71.237 71.248-71.232c39.344 0.005 71.237 31.903 71.232 71.248z" fill="#FFFFFF" p-id="1470"></path></svg>